<?xml version="1.0" encoding="UTF-8"?>
<svg xmlns="http://www.w3.org/2000/svg" xmlns:xlink="http://www.w3.org/1999/xlink" viewBox="0 0 430 120" role="img" aria-labelledby="brand-title">
  <title id="brand-title">Beon</title>
  <defs>
    <style>
      .wordmark {
        fill: #f7f7f7;
        font-family: "Nunito Sans", "Avenir Next", "Segoe UI", sans-serif;
        font-size: 64px;
        font-weight: 800;
        letter-spacing: -2px;
      }
    </style>
    <linearGradient id="brand-gradient-a" x1="691.25" y1="536.31" x2="449.47" y2="36.76" gradientUnits="userSpaceOnUse">
      <stop offset="0" stop-color="#2b5ca1"/>
      <stop offset=".07" stop-color="#4a61a7"/>
      <stop offset=".2" stop-color="#796ab1"/>
      <stop offset=".3" stop-color="#966fb7"/>
      <stop offset=".35" stop-color="#a272ba"/>
      <stop offset=".51" stop-color="#9f71b9"/>
      <stop offset=".62" stop-color="#956fb7"/>
      <stop offset=".73" stop-color="#856cb4"/>
      <stop offset=".82" stop-color="#6f68af"/>
      <stop offset=".91" stop-color="#5263a9"/>
      <stop offset=".99" stop-color="#2f5ca1"/>
      <stop offset="1" stop-color="#2b5ca1"/>
    </linearGradient>
    <linearGradient id="brand-gradient-b" x1="583.54" y1="588.45" x2="341.76" y2="88.89" xlink:href="#brand-gradient-a"/>
    <linearGradient id="brand-gradient-c" x1="755.47" y1="505.23" x2="513.69" y2="5.68" xlink:href="#brand-gradient-a"/>
    <linearGradient id="brand-gradient-d" x1="469.22" y1="662.44" x2="227.44" y2="162.88" xlink:href="#brand-gradient-a"/>
    <linearGradient id="brand-gradient-e" x1="641.32" y1="579.15" x2="399.54" y2="79.59" xlink:href="#brand-gradient-a"/>
    <linearGradient id="brand-gradient-f" x1="533.87" y1="631.15" x2="292.1" y2="131.59" xlink:href="#brand-gradient-a"/>
  </defs>
  <g transform="translate(0 12) scale(0.135)">
    <path fill="url(#brand-gradient-a)" d="M526.81,192.53l-53.09-.19c-3.1-.01-7.13-3.14-8.76-5.81l-24.79-40.66c-1.79-2.94-2.03-7.9-.21-10.91l28.97-47.79,61.59-.19,29.07,48.9c1.33,2.24,1.12,6.9-.19,9.11l-24.73,41.48c-1.31,2.19-5.53,6.06-7.86,6.05Z"/>
    <path fill="url(#brand-gradient-b)" d="M419.6,248.69l-51.56-.06c-3.54,0-7.25-2.12-9.12-5.33l-22.69-38.89c-1.17-2.01-4.62-7.51-3.33-9.86,9.28-17.01,19.35-33.95,29.81-51.02l61.26-.31c11.43,17.35,21.48,34.19,31.3,52.67l-27.77,48.1c-1.24,2.15-5.47,4.69-7.9,4.69Z"/>
    <path fill="url(#brand-gradient-c)" d="M579.26,248.81c-1.88,0-6.04-2.5-7.24-4.5l-25.49-42.36c-1.79-2.98-1.85-7.57-.11-10.51l26.02-43.78c1.26-2.12,5.51-4.59,7.94-4.58l56.15.19,27.98,45.73c2.82,4.6,2.21,9.05-.45,13.53l-27.3,45.99-57.5.28Z"/>
    <path fill="url(#brand-gradient-d)" d="M427.82,553.05c-2.21,3.75-5.65,6.13-9.48,6.11l-56.27-.31-28.09-47.08c-1.38-2.31-1.89-7.15-.55-9.44l28.95-49.57,62.06-.17,28.69,47.86c1.64,2.74,1.28,7.51-.28,10.14l-25.03,42.46Z"/>
    <path fill="url(#brand-gradient-e)" d="M636.96,558.9l-56.52.22c-2.08,0-6.35-2.32-7.41-4.05l-25.91-42.38c-2.66-4.35-2.43-9.04.22-13.48l27.65-46.36,61.65-.12,28.33,47.02c2.06,3.42,1.83,8.41-.15,11.77l-27.87,47.37Z"/>
    <path fill="url(#brand-gradient-f)" d="M530.63,613.88l-56.57.46c-2.21.02-6.58-2.51-7.83-4.6l-26.36-44.35c-2.12-3.56-.94-8.29,1.14-11.76l24.3-40.56c1.44-2.4,6-4.65,8.72-4.65l52.3-.03c2,0,6.29,2.61,7.31,4.32l25.8,42.79c1.63,2.7,1.59,7.1-.02,9.82l-28.79,48.56Z"/>
  </g>
  <text class="wordmark" x="152" y="78">Beon</text>
</svg>
